<?xml version="1.0" encoding="UTF-8" standalone="no"?>
<svg
   version="1.1"
   id="Layer_1"
   x="0px"
   y="0px"
   viewBox="0 0 122.88 84.81"
   style="enable-background:new 0 0 122.88 84.81"
   xml:space="preserve"
   sodipodi:docname="language-translator-icon.svg"
   inkscape:version="1.2.2 (b0a8486541, 2022-12-01)"
   xmlns:inkscape="http://www.inkscape.org/namespaces/inkscape"
   xmlns:sodipodi="http://sodipodi.sourceforge.net/DTD/sodipodi-0.dtd"
   xmlns="http://www.w3.org/2000/svg"
   xmlns:svg="http://www.w3.org/2000/svg"><defs
     id="defs11" /><sodipodi:namedview
     id="namedview9"
     pagecolor="#ffffff"
     bordercolor="#000000"
     borderopacity="0.25"
     inkscape:showpageshadow="2"
     inkscape:pageopacity="0.0"
     inkscape:pagecheckerboard="0"
     inkscape:deskcolor="#d1d1d1"
     showgrid="false"
     inkscape:zoom="6.8951459"
     inkscape:cx="50.107714"
     inkscape:cy="38.360319"
     inkscape:window-width="1920"
     inkscape:window-height="1008"
     inkscape:window-x="0"
     inkscape:window-y="0"
     inkscape:window-maximized="1"
     inkscape:current-layer="Layer_1" /><style
     type="text/css"
     id="style2">.st0{fill-rule:evenodd;clip-rule:evenodd;}</style><path
     class="st0"
     d="m 118.29,10.9 c 2.31,2.31 3.9,5.34 4.41,8.72 0.19,1.3 0.18,2.42 0.18,3.7 v 21.09 c 0,1.14 0.03,2.27 -0.07,3.41 -0.44,4.72 -3.08,9.07 -7.06,11.64 -5.04,3.27 -10.8,2.52 -16.83,2.52 1.99,5.48 6,10.54 10.33,14.37 l -1.62,3.04 -0.05,-0.02 c -10.49,-2.7 -21.55,-8.9 -28.29,-17.4 -4.17,-0.04 -7.58,0.01 -11.74,-0.55 -4.58,2.78 -10.03,4.59 -15.41,4.59 -3.49,4.35 -7.55,8.07 -12.19,11.12 -5.01,3.29 -10.67,5.79 -16.98,7.45 -0.31,0.08 -0.62,0.16 -0.94,0.2 -1.09,0.12 -2.23,-0.27 -3.01,-1.15 -1.28,-1.44 -1.14,-3.65 0.3,-4.93 4.08,-3.61 6.36,-7.57 7.99,-12.67 -7.96,0 -14.62,0.84 -21.1,-5.63 C -1.88,52.3 0.13,33.47 0.54,22.17 0.67,18.54 0.42,16.15 1.87,12.36 3.75,7.42 7.65,3.43 12.58,1.45 17.19,-0.41 22.2,0.05 27.06,0.05 h 29.55 c 2.17,0 3.94,-0.01 6.16,0.51 3.74,0.86 7.13,2.85 9.78,5.74 l 34.12,0.01 c 4.51,0 8.38,1.34 11.62,4.59 z M 99.93,42.79 h -8.97 l -1.24,4.46 h -8.04 c 2.69,-7.6 5.39,-15.21 8.08,-22.82 0.97,-2.75 2.07,-7.3 5.6,-7.3 3.66,0 4.87,4.17 5.89,7.05 l 8.18,23.06 h -8.24 z m -1.65,-5.85 -2.82,-9.72 -2.8,9.72 z m -15.13,34.72 -5.83,-4.82 -7.28,8.99 -10.57,-9.17 -4.99,5.64 11.45,9.11 9.28,-0.8 z m -6.5,-61.8 c 3.42,13.31 7.07,36.69 -2.11,48.53 2.17,0.03 4.31,0.03 6.48,0.03 4.92,6.54 11.24,11.11 18.68,14.45 0.7,0.31 1.41,0.62 2.12,0.9 -2.53,-3.06 -4.75,-6.59 -6.16,-10.33 -0.65,-1.73 -1,-3.25 -1.44,-5.02 2.04,0 4.04,0.02 6.09,0.09 4.53,0.16 9.3,0.29 13.07,-1.82 1.63,-0.91 2.94,-2.2 3.97,-3.75 0.91,-1.39 1.55,-2.98 1.83,-4.67 0.21,-1.28 0.14,-2.69 0.14,-3.99 V 22.63 c 0,-0.57 0.01,-1.09 -0.03,-1.66 -0.23,-2.93 -1.53,-5.59 -3.51,-7.57 -1.92,-1.93 -4.49,-3.21 -7.33,-3.49 C 107.72,9.84 107,9.85 106.27,9.85 Z M 21.21,13.49 H 34.65 V 9.7 h 6 v 3.79 h 13.49 v 6.22 h -2.77 c -0.22,1.75 -0.63,3.49 -1.19,5.21 h 0.01 c -0.57,1.75 -1.35,3.51 -2.28,5.25 -1.58,2.95 -3.62,5.78 -5.98,8.5 3.78,4.52 8.46,8.45 14.05,12.03 l -3.09,4.81 C 47.03,51.75 42.05,47.61 37.96,42.84 34.3,46.38 30.15,49.68 25.79,52.69 l -3.25,-4.7 c 4.31,-2.98 8.4,-6.24 11.92,-9.71 C 31.21,33.53 28.73,28.2 27.01,22.07 l 5.51,-1.54 c 1.41,5.03 3.39,9.45 5.93,13.41 1.73,-2.1 3.23,-4.25 4.42,-6.46 0.75,-1.4 1.39,-2.86 1.88,-4.35 h 0.01 v 0 c 0.37,-1.11 0.65,-2.26 0.84,-3.42 H 21.21 Z"
     id="path4" /></svg>
