<?xml version="1.0" encoding="UTF-8" standalone="no"?>
<svg
   shape-rendering="geometricPrecision"
   text-rendering="geometricPrecision"
   image-rendering="optimizeQuality"
   fill-rule="evenodd"
   clip-rule="evenodd"
   viewBox="0 0 393 512.11"
   version="1.1"
   id="svg6"
   sodipodi:docname="sd-card.svg"
   inkscape:version="1.2.2 (b0a8486541, 2022-12-01)"
   xmlns:inkscape="http://www.inkscape.org/namespaces/inkscape"
   xmlns:sodipodi="http://sodipodi.sourceforge.net/DTD/sodipodi-0.dtd"
   xmlns="http://www.w3.org/2000/svg"
   xmlns:svg="http://www.w3.org/2000/svg">
  <defs
     id="defs10" />
  <sodipodi:namedview
     id="namedview8"
     pagecolor="#ffffff"
     bordercolor="#000000"
     borderopacity="0.25"
     inkscape:showpageshadow="2"
     inkscape:pageopacity="0.0"
     inkscape:pagecheckerboard="0"
     inkscape:deskcolor="#d1d1d1"
     showgrid="false"
     inkscape:zoom="1.6148875"
     inkscape:cx="152.64221"
     inkscape:cy="157.59612"
     inkscape:window-width="1920"
     inkscape:window-height="1008"
     inkscape:window-x="0"
     inkscape:window-y="0"
     inkscape:window-maximized="1"
     inkscape:current-layer="svg6" />
  <path
     id="path2"
     d="M 68.910156 0 C 55.970169 4.7369468e-15 45.369141 10.589075 45.369141 23.539062 L 45.369141 169.71094 L 0 212.89062 L 0 278.18945 L 21.070312 278.18945 L 21.070312 323.48047 L 0.009765625 348.75977 L 0.009765625 469.40039 C 0.009765625 502.21036 8.4991775 511.56938 45.369141 512.10938 L 369.46094 512.10938 C 382.39092 512.10938 393 501.5003 393 488.57031 L 393 23.539062 C 393 10.609075 382.41092 0 369.46094 0 L 68.910156 0 z M 83.320312 39.849609 L 108.83984 39.849609 C 110.10984 39.849609 111.15039 40.890392 111.15039 42.150391 L 111.15039 128.56055 C 111.15039 129.83055 110.10984 130.85938 108.83984 130.85938 L 83.320312 130.85938 A 2.3 2.3 0 0 1 81.019531 128.56055 L 81.019531 42.150391 C 81.019531 40.890392 82.050314 39.849609 83.320312 39.849609 z M 132.68945 39.849609 L 158.21094 39.849609 C 159.48094 39.849609 160.50977 40.890392 160.50977 42.150391 L 160.50977 128.56055 A 2.3 2.3 0 0 1 158.21094 130.85938 L 132.68945 130.85938 C 131.41945 130.85938 130.38086 129.83055 130.38086 128.56055 L 130.38086 42.150391 C 130.38086 40.890392 131.41945 39.849609 132.68945 39.849609 z M 182.05078 39.849609 L 207.58008 39.849609 C 208.84008 39.849609 209.88086 40.890392 209.88086 42.150391 L 209.88086 128.56055 C 209.88086 129.83055 208.84008 130.85938 207.58008 130.85938 L 182.05078 130.85938 C 180.79078 130.85938 179.75 129.83055 179.75 128.56055 L 179.75 42.150391 C 179.75 40.890392 180.79078 39.849609 182.05078 39.849609 z M 231.41992 39.849609 L 256.93945 39.849609 C 258.20945 39.849609 259.25 40.890392 259.25 42.150391 L 259.25 128.56055 C 259.25 129.83055 258.20945 130.85938 256.93945 130.85938 L 231.41992 130.85938 C 230.14992 130.85938 229.10938 129.83055 229.10938 128.56055 L 229.10938 42.150391 C 229.10938 40.890392 230.14992 39.849609 231.41992 39.849609 z M 280.7793 39.849609 L 306.31055 39.849609 C 307.57055 39.849609 308.60937 40.890392 308.60938 42.150391 L 308.60938 128.56055 C 308.60938 129.83055 307.57055 130.85938 306.31055 130.85938 L 280.7793 130.85938 A 2.3 2.3 0 0 1 278.48047 128.56055 L 278.48047 42.150391 C 278.48047 40.890392 279.5093 39.849609 280.7793 39.849609 z M 330.15039 39.849609 L 355.66992 39.849609 C 356.93992 39.849609 357.98047 40.890392 357.98047 42.150391 L 357.98047 128.56055 C 357.98047 129.83055 356.93992 130.85938 355.66992 130.85938 L 330.15039 130.85938 C 328.88039 130.85938 327.83984 129.83055 327.83984 128.56055 L 327.83984 42.150391 C 327.83984 40.890392 328.88039 39.849609 330.15039 39.849609 z " />
</svg>
