<?xml version="1.0" encoding="UTF-8" standalone="no"?>
<!-- Created with Inkscape (http://www.inkscape.org/) -->

<svg
   width="46.348461mm"
   height="37.824787mm"
   viewBox="0 0 46.348462 37.824788"
   version="1.1"
   id="svg5"
   xml:space="preserve"
   inkscape:version="1.2.2 (b0a8486541, 2022-12-01)"
   sodipodi:docname="cross-platform.svg"
   xmlns:inkscape="http://www.inkscape.org/namespaces/inkscape"
   xmlns:sodipodi="http://sodipodi.sourceforge.net/DTD/sodipodi-0.dtd"
   xmlns="http://www.w3.org/2000/svg"
   xmlns:svg="http://www.w3.org/2000/svg"><sodipodi:namedview
     id="namedview7"
     pagecolor="#ffffff"
     bordercolor="#000000"
     borderopacity="0.25"
     inkscape:showpageshadow="2"
     inkscape:pageopacity="0.0"
     inkscape:pagecheckerboard="0"
     inkscape:deskcolor="#d1d1d1"
     inkscape:document-units="mm"
     showgrid="false"
     inkscape:zoom="0.75989759"
     inkscape:cx="29.609253"
     inkscape:cy="273.06311"
     inkscape:window-width="1041"
     inkscape:window-height="890"
     inkscape:window-x="0"
     inkscape:window-y="0"
     inkscape:window-maximized="0"
     inkscape:current-layer="layer1" /><defs
     id="defs2" /><g
     inkscape:label="Layer 1"
     inkscape:groupmode="layer"
     id="layer1"
     transform="translate(-73.00813,-77.882152)"><g
       style="clip-rule:evenodd;fill-rule:evenodd;image-rendering:optimizeQuality;shape-rendering:geometricPrecision;text-rendering:geometricPrecision"
       id="g141"
       transform="matrix(0.02645833,0,0,0.02645833,103.99642,77.882787)"><path
         d="m 494.782,340.02 c -0.803,-81.025 66.084,-119.907 69.072,-121.832 -37.595,-54.993 -96.167,-62.552 -117.037,-63.402 -49.843,-5.032 -97.242,29.362 -122.565,29.362 -25.253,0 -64.277,-28.607 -105.604,-27.85 -54.32,0.803 -104.4,31.594 -132.403,80.245 -56.435,97.914 -14.435,243.037 40.571,322.433 26.87,38.882 58.914,82.56 100.997,81 40.512,-1.594 55.843,-26.244 104.848,-26.244 48.993,0 62.753,26.245 105.64,25.406 43.606,-0.803 71.232,-39.638 97.925,-78.65 30.887,-45.12 43.548,-88.75 44.316,-90.994 -0.969,-0.437 -85.029,-32.634 -85.879,-129.439 l 0.118,-0.035 z M 414.23,102.178 C 436.553,75.095 451.636,37.5 447.514,-0.024 c -32.162,1.311 -71.163,21.437 -94.253,48.485 -20.729,24.012 -38.836,62.28 -33.993,99.036 35.918,2.8 72.591,-18.248 94.926,-45.272 z"
         id="path132" /></g><g
       style="clip-rule:evenodd;fill-rule:evenodd;image-rendering:optimizeQuality;shape-rendering:geometricPrecision;text-rendering:geometricPrecision"
       id="g152"
       transform="matrix(0.02645833,0,0,0.02645833,93.899089,98.773607)"><path
         d="m 354.796,460.541 c -51.201,23.847 -98.848,23.552 -130.856,21.284 -38.15,-2.764 -68.835,-13.193 -82.312,-22.312 -8.315,-5.634 -19.595,-3.448 -25.252,4.89 -5.658,8.327 -3.45,19.583 4.89,25.24 21.673,14.682 60.024,25.596 100.123,28.49 6.803,0.483 14.244,0.802 22.287,0.802 34.879,0 79.159,-3.33 126.521,-25.358 9.118,-4.229 13.052,-15.048 8.8,-24.154 -4.24,-9.118 -15.036,-13.051 -24.154,-8.8 l -0.048,-0.082 z M 556.838,433.635 C 558.598,275.708 574.803,-22.737 272.472,1.382 -26.055,25.418 53.103,340.742 48.674,446.344 44.717,502.223 26.197,570.515 0,639.988 L 80.67,640 c 8.28,-29.433 14.41,-58.572 16.985,-86.351 a 190.202,190.202 0 0 0 15.65,9.791 c 9.047,5.327 16.795,12.402 25.04,19.878 19.204,17.528 40.996,37.359 83.563,39.84 2.835,0.165 5.705,0.247 8.552,0.247 43.087,0 72.52,-18.838 96.166,-34.004 11.327,-7.24 21.119,-13.524 30.367,-16.524 26.197,-8.197 49.075,-21.437 66.201,-38.28 a 124.86,124.86 0 0 0 7.477,-8.079 c 9.531,34.926 22.56,74.245 37.04,113.446 l 172.29,-0.012 C 598.638,576.078 555.964,513.478 556.838,433.587 Z M 77.553,347.71 v -0.036 c -2.965,-51.532 21.685,-94.89 55.075,-96.851 33.402,-1.973 62.848,38.28 65.8,89.8 v 0.047 c 0.166,2.764 0.237,5.516 0.237,8.233 -10.571,2.645 -20.115,6.52 -28.678,11.008 -0.047,-0.39 -0.047,-0.756 -0.07,-1.158 -2.847,-29.244 -18.485,-51.355 -34.926,-49.359 -16.453,1.985 -27.438,27.355 -24.567,56.6 1.24,12.756 4.913,24.153 10.04,32.764 -1.288,0.992 -4.89,3.638 -9.001,6.638 -3.118,2.28 -6.874,5.031 -11.445,8.397 C 87.581,397.47 79.065,374.084 77.541,347.592 Z m 338.248,127.407 c -1.193,27.248 -36.804,52.89 -69.733,63.166 l -0.19,0.07 c -13.688,4.454 -25.89,12.25 -38.799,20.517 -21.72,13.878 -44.162,28.24 -76.56,28.24 -2.114,0 -4.323,-0.07 -6.437,-0.189 -29.681,-1.724 -43.607,-14.41 -61.158,-30.437 -9.284,-8.433 -18.874,-17.197 -31.229,-24.45 L 131.4,531.87 c -26.681,-15.072 -43.229,-33.804 -44.327,-50.115 -0.508,-8.115 3.094,-15.119 10.724,-20.882 16.642,-12.485 27.804,-20.634 35.162,-26.032 8.197,-6 10.677,-7.796 12.52,-9.555 a 183.84,183.84 0 0 0 4.24,-4.123 c 15.284,-14.846 40.831,-39.72 80.08,-39.72 24,0 50.551,9.236 78.84,27.437 13.322,8.681 24.92,12.685 39.59,17.764 10.087,3.484 21.567,7.44 36.875,14.008 l 0.248,0.118 c 14.28,5.882 31.205,16.595 30.402,34.323 z M 407.923,411.1 a 102.134,102.134 0 0 0 -8.599,-3.91 c -13.807,-5.928 -24.886,-9.92 -34.087,-13.121 5.091,-9.922 8.245,-22.312 8.528,-35.753 0.732,-32.717 -15.791,-59.327 -36.874,-59.363 -21.072,-0.023 -38.717,26.446 -39.438,59.162 a 36.16,36.16 0 0 0 0,3.201 c -12.957,-5.953 -25.713,-10.323 -38.233,-12.957 -0.047,-1.24 -0.13,-2.433 -0.165,-3.673 v -0.035 c -1.205,-59.647 35.363,-109.005 81.71,-110.245 46.358,-1.24 84.875,46.075 86.115,105.675 v 0.047 c 0.555,26.953 -6.685,51.792 -19.004,71.044 l 0.047,-0.07 z"
         id="path143" /></g><g
       style="clip-rule:evenodd;fill-rule:evenodd;image-rendering:optimizeQuality;shape-rendering:geometricPrecision;text-rendering:geometricPrecision"
       id="g321"
       transform="matrix(0.02645833,0,0,0.02645833,73.00813,82.75725)"><path
         d="M 0.2,298.669 0,90.615 256.007,55.855 V 298.669 H 0.201 Z M 298.658,49.654 639.905,-0.012 V 298.669 H 298.657 V 49.654 Z M 640,341.331 639.929,640.012 298.669,592 V 341.332 h 341.33 z M 255.983,586.543 0.189,551.463 v -210.18 h 255.794 z"
         id="path312" /></g></g></svg>
